<svg width="176" height="84" viewBox="0 0 176 84" fill="none" xmlns="http://www.w3.org/2000/svg">
<path d="M68.0502 76.3189H54.3993C54.3533 77.8341 54.8657 78.8549 55.9886 79.7116C57.0634 80.5022 58.1383 80.7004 61.505 80.7664H68.0502V83.3024H60.29C56.3629 83.3024 54.5394 82.9402 52.8101 81.8533C50.7064 80.5022 49.5835 78.2945 49.5835 75.5943C49.5835 72.2337 51.2668 69.7637 54.5394 68.3786C56.3149 67.588 58.4185 67.2577 61.505 67.2577H68.0502V69.7937H62.1595C57.2976 69.7277 55.194 70.8145 54.3993 73.7809H68.0502V76.3189Z" fill="#EFEFEF"/>
<path d="M91.4249 69.7955H81.1868C78.0543 69.7955 77.5879 69.8615 77.0255 70.2238C76.5111 70.6201 76.2308 71.2446 76.2308 72.0353C76.2308 73.6506 76.9794 73.9788 80.7184 73.9788H83.8029C88.8509 74.0108 89.0851 74.0449 90.1139 74.4732C91.563 75.0997 92.4037 76.5809 92.4037 78.4924C92.4037 80.6001 91.3288 82.1813 89.4594 82.8419C88.3845 83.2382 87.4017 83.3022 83.8029 83.3022H71.7893V80.7662H82.728C85.0178 80.7662 86.0947 80.7002 86.6091 80.536C87.3577 80.3379 87.732 79.7454 87.732 78.7566C87.732 77.7018 87.3117 77.1433 86.3289 76.9452C85.8605 76.8791 85.1599 76.8471 83.0102 76.8471H81.1868C76.3249 76.8471 75.2501 76.715 73.941 75.9904C72.4458 75.1337 71.5571 73.6185 71.5571 72.0052C71.5571 70.1598 72.68 68.6125 74.5495 67.92C75.7645 67.4596 77.3537 67.2615 79.9718 67.2615H91.4249V69.7955Z" fill="#EFEFEF"/>
<path d="M114.751 69.7957H107.506C102.55 69.7957 100.634 71.3449 100.634 75.2981C100.634 77.4398 101.243 78.8889 102.55 79.7776C103.533 80.5022 104.934 80.7664 107.506 80.7664H114.751V83.3024H107.506C102.83 83.3024 100.586 82.8421 98.8108 81.457C96.9873 80.0399 95.9585 77.8982 95.9585 75.5603C95.9585 73.0563 96.9873 70.8826 98.9509 69.3994C101.009 67.8181 103.298 67.2577 107.506 67.2577H114.751V69.7957Z" fill="#EFEFEF"/>
<path d="M140.275 75.3639C140.275 80.47 135.974 83.4684 128.682 83.4684C121.202 83.4684 117.043 80.6341 117.043 75.5621C117.043 73.1241 118.118 70.8844 119.987 69.4352C121.997 67.8539 124.849 67.0953 128.916 67.0953C136.208 67.0933 140.275 70.0597 140.275 75.3639ZM121.717 75.3639C121.717 78.9548 124.055 80.8323 128.542 80.8323C133.218 80.8323 135.602 79.0208 135.602 75.43C135.602 71.7731 133.078 69.7314 128.636 69.7314C124.195 69.7314 121.717 71.739 121.717 75.3639Z" fill="#EFEFEF"/>
<path d="M145.138 83.3023V61.3289H149.671V83.3023H145.138V83.3023Z" fill="#EFEFEF"/>
<path d="M171.456 73.5186C171.502 70.29 170.756 69.7636 166.314 69.7957H155.61V67.2596H167.297C174.028 67.1936 176.132 68.6107 175.992 73.1563V83.3024H164.445C160.097 83.3024 158.882 83.1383 157.293 82.3476C155.658 81.491 154.769 80.1399 154.769 78.4926C154.769 76.6151 155.844 75.0338 157.621 74.2432C158.79 73.7168 160.426 73.5186 163.372 73.5186H171.456V73.5186ZM163.882 76.0546C160.656 76.0546 159.441 76.7132 159.441 78.4265C159.441 80.1399 160.656 80.7664 163.882 80.7664H171.456V76.0546H163.882Z" fill="#EFEFEF"/>
<path fill-rule="evenodd" clip-rule="evenodd" d="M72.4136 55.5562L86.755 20.9207H95.2517L109.585 55.5562H100.932L97.5896 47.5358H84.4171L81.0665 55.5562H72.4136ZM91.0184 29.2453L86.0724 41.3709H95.9363L91.0184 29.2453ZM139.301 20.9207V27.0876H129.687C127.167 27.0876 125.332 27.2617 124.187 27.608C123.052 27.9542 122.099 28.6308 121.338 29.6256C120.828 30.3001 120.482 30.9847 120.3 31.6792C120.11 32.3718 119.953 33.5587 119.815 35.23H139.303V41.3969H119.815C120.065 44.3933 120.94 46.473 122.431 47.6419C123.921 48.8108 126.451 49.3913 130.017 49.3913H139.301V55.5582H129.687C127.081 55.5582 124.785 55.3941 122.81 55.0738C119.691 54.5714 117.215 53.2123 115.37 50.9946C112.746 47.808 111.439 43.4946 111.439 38.0563C111.439 32.0115 113.292 27.3177 116.999 23.9731C118.264 22.8382 119.615 22.0415 121.052 21.5992C122.499 21.1488 124.421 20.9227 126.847 20.9227H139.301V20.9207ZM145.139 55.5562V20.9207H164.731C167.797 20.9207 170.023 21.2669 171.434 21.9595C173.054 22.7901 174.285 24.1332 175.107 25.9947C175.706 27.2857 176 28.6188 176 30.0039C176 31.7973 175.524 33.4766 174.563 35.0279C173.61 36.5871 172.407 37.66 170.952 38.2504C174.305 39.7917 175.976 42.5118 175.976 46.4009C175.976 48.6607 175.439 50.5582 174.375 52.0834C173.466 53.4005 172.279 54.3092 170.816 54.8116C169.353 55.306 167.179 55.5562 164.303 55.5562H145.139ZM152.501 35.16H162.547C163.596 35.16 164.367 35.1079 164.851 34.9958C165.327 34.8838 165.796 34.6576 166.228 34.3193C167.311 33.4967 167.855 32.3537 167.855 30.8986C167.855 29.4875 167.345 28.4566 166.33 27.7981C165.604 27.3217 164.391 27.0876 162.701 27.0876H152.501V35.16ZM152.501 49.3893H162.547C163.596 49.3893 164.367 49.3373 164.859 49.2252C165.343 49.1131 165.804 48.8869 166.228 48.5486C167.311 47.726 167.847 46.5831 167.847 45.1279C167.847 43.7248 167.337 42.694 166.324 42.0354C165.596 41.5591 164.393 41.3249 162.703 41.3249H152.501V49.3893Z" fill="#EFEFEF"/>
<path fill-rule="evenodd" clip-rule="evenodd" d="M29.4293 11.0028C29.4293 11.0028 44.3011 20.3723 40.9364 28.5307L17.2416 54.6435C17.2416 54.6435 23.3805 47.754 6.25684 32.8442L29.4293 11.0028Z" fill="#EFEFEF"/>
<path fill-rule="evenodd" clip-rule="evenodd" d="M27.752 11.3411L4.77375 33.2084C4.77375 33.2084 19.3714 43.915 17.0275 52.9001C17.0275 52.9001 17.0275 44.3053 3.55078 33.5627L27.2596 10.9988L27.752 11.3411Z" fill="#EFEFEF"/>
<path fill-rule="evenodd" clip-rule="evenodd" d="M24.9999 12.1479L2.14771 33.9712C2.14771 33.9712 13.0864 41.0028 15.8206 51.5512C15.8206 51.5512 11.329 40.8087 0 34.1674L23.9871 11.9497L24.9999 12.1479Z" fill="#EFEFEF"/>
<path fill-rule="evenodd" clip-rule="evenodd" d="M59.9534 39.9398C59.9534 39.9398 49.7413 25.6345 41.791 29.4655L17.0894 54.6315C17.0894 54.6315 23.6125 48.1043 39.4872 64.3392L59.9534 39.9398Z" fill="#EFEFEF"/>
<path fill-rule="evenodd" clip-rule="evenodd" d="M59.6893 41.6373L39.187 65.8406C39.187 65.8406 27.6538 51.8855 18.8208 54.7458C18.8208 54.7458 27.4016 54.2494 38.9048 67.0836L60.0616 42.1097L59.6893 41.6373Z" fill="#EFEFEF"/>
<path fill-rule="evenodd" clip-rule="evenodd" d="M59.2307 44.4196L38.7644 68.4947C38.7644 68.4947 31.1123 57.9823 20.4238 55.8607C20.4238 55.8607 31.4086 59.7237 38.6924 70.6504L59.4849 45.4184L59.2307 44.4196Z" fill="#EFEFEF"/>
<path fill-rule="evenodd" clip-rule="evenodd" d="M14.5716 82.5957C15.3822 82.4716 17.1977 82.1873 17.6901 81.759C12.7521 81.6029 9.86784 80.1037 9.45751 76.5869C9.0692 66.1486 22.8842 45.1219 50.8664 21.7613C61.8712 12.9403 72.6057 5.37227 83.1181 1.78942L85.2258 0C75.44 2.95635 63.4244 9.48154 50.7423 19.3434C24.6436 39.7376 4.34145 66.665 5.74056 78.4223C6.59524 82.2214 8.47273 83.1281 14.5716 82.5957Z" fill="#FDC800"/>
</svg>
